<svg xmlns="http://www.w3.org/2000/svg" version="1.1" xmlns:xlink="http://www.w3.org/1999/xlink" xmlns:svgjs="http://svgjs.dev/svgjs" width="1000" height="1125" viewBox="0 0 1000 1125"><g transform="matrix(1,0,0,1,0.0006562499999631655,0)"><svg viewBox="0 0 320 360" data-background-color="#ffffff" preserveAspectRatio="xMidYMid meet" height="1125" width="1000" xmlns="http://www.w3.org/2000/svg" xmlns:xlink="http://www.w3.org/1999/xlink"><g id="tight-bounds" transform="matrix(1,0,0,1,-0.00020999999998139174,0)"><svg viewBox="0 0 320 360" height="360" width="320"><rect width="320.00041999999996" height="360" fill="url(#5e0a851c-4a82-470d-80ae-ec1f4eb108e0)" mask="url(#8cc070c9-5f61-4ba3-b87b-58f408f3557b)" data-fill-palette-color="tertiary"></rect><g><svg></svg></g><g><svg viewBox="0 0 320 360" height="360" width="320"><g><path transform="translate(-17.77778,2.22222) scale(3.55556,3.55556)" d="M95 52c0-12.871-5.692-24.431-14.682-32.318-7.887-8.99-19.447-14.682-32.318-14.682-23.71 0-43 19.29-43 43 0 12.868 5.69 24.426 14.677 32.313 7.887 8.993 19.449 14.687 32.323 14.687 0.084 0 0.166-0.006 0.25-0.006 0.084 0 0.166 0.006 0.25 0.006 23.472 0 42.5-19.028 42.5-42.5 0-0.084-0.006-0.166-0.006-0.25 0-0.084 0.006-0.166 0.006-0.25zM21.828 73.371c-4.245-5.978-6.77-13.259-6.822-21.121 0.135-20.511 16.732-37.109 37.244-37.244 7.862 0.052 15.144 2.577 21.121 6.822 6.853 6.645 11.129 15.93 11.129 26.172 0 20.126-16.374 36.5-36.5 36.5-10.242 0-19.527-4.276-26.172-11.129zM6 48c0-23.159 18.841-42 42-42 9.858 0 18.926 3.422 26.1 9.13-6.463-3.888-14.024-6.13-22.1-6.13-23.71 0-43 19.29-43 43 0 8.074 2.241 15.633 6.127 22.095-5.706-7.172-9.127-16.239-9.127-26.095zM52 89c-10.08 0-19.227-4.055-25.905-10.615 6.174 4.469 13.743 7.115 21.905 7.115 20.678 0 37.5-16.822 37.5-37.5 0-8.162-2.646-15.731-7.115-21.905 6.56 6.678 10.615 15.825 10.615 25.905 0 20.402-16.598 37-37 37z" fill="url(#5e0a851c-4a82-470d-80ae-ec1f4eb108e0)" fill-rule="nonzero" stroke="none" stroke-width="1" stroke-linecap="butt" stroke-linejoin="miter" stroke-miterlimit="10" stroke-dasharray="" stroke-dashoffset="0" font-family="none" font-weight="none" font-size="none" text-anchor="none" style="mix-blend-mode: normal" data-fill-palette-color="tertiary"></path></g><g transform="matrix(1,0,0,1,64,123.70821324632952)"><svg viewBox="0 0 192 112.58357350734096" height="112.58357350734096" width="192"><g><svg viewBox="0 0 192 112.58357350734096" height="112.58357350734096" width="192"><g><svg viewBox="0 0 192 112.58357350734096" height="112.58357350734096" width="192"><g transform="matrix(1,0,0,1,0,77.60804332789561)"><svg viewBox="0 0 192 34.97553017944535" height="34.97553017944535" width="192"><g id="textblocktransform"><svg viewBox="0 0 192 34.97553017944535" height="34.97553017944535" width="192" id="textblock"><g><svg viewBox="0 0 192 34.97553017944535" height="34.97553017944535" width="192"><g transform="matrix(1,0,0,1,0,0)"><svg width="192" viewBox="3.25 -33 183.89 33.5" height="34.97553017944535" data-palette-color="url(#01e97b55-da1b-4919-87ee-6df00673ded0)"></svg></g></svg></g></svg></g></svg></g><g transform="matrix(1,0,0,1,64.38161112430669,0)"><svg viewBox="0 0 63.23677775138664 72.50427406199023" height="72.50427406199023" width="63.23677775138664"><g><svg xmlns="http://www.w3.org/2000/svg" xmlns:xlink="http://www.w3.org/1999/xlink" version="1.1" x="0" y="0" viewBox="6.391000000000002 0 87.218 100" enable-background="new 0 0 100 100" xml:space="preserve" height="72.50427406199023" width="63.23677775138664" class="icon-icon-0" data-fill-palette-color="accent" id="icon-0"></svg></g></svg></g><g></g></svg></g></svg></g></svg></g></svg></g><defs></defs><mask id="d2d70139-c129-4900-838a-9dbf14485caf"><g id="SvgjsG1004"><svg viewBox="0 0 320 360" height="360" width="320"><g><svg></svg></g><g><svg viewBox="0 0 320 360" height="360" width="320"><g></g><g transform="matrix(1,0,0,1,64,123.70821324632952)"><svg viewBox="0 0 192 112.58357350734096" height="112.58357350734096" width="192"><g><svg viewBox="0 0 192 112.58357350734096" height="112.58357350734096" width="192"><g><svg viewBox="0 0 192 112.58357350734096" height="112.58357350734096" width="192"><g transform="matrix(1,0,0,1,0,77.60804332789561)"><svg viewBox="0 0 192 34.97553017944535" height="34.97553017944535" width="192"><g id="SvgjsG1003"><svg viewBox="0 0 192 34.97553017944535" height="34.97553017944535" width="192" id="SvgjsSvg1002"><g><svg viewBox="0 0 192 34.97553017944535" height="34.97553017944535" width="192"><g transform="matrix(1,0,0,1,0,0)"><svg width="192" viewBox="3.25 -33 183.89 33.5" height="34.97553017944535" data-palette-color="url(#01e97b55-da1b-4919-87ee-6df00673ded0)"><path d="M28.1 0L3.25 0 3.25-0.8 7.25-2.8 7.25-30.2 3.25-32.2 3.25-33 16.25-33 16.25-32.2 11.75-30.2 11.75-2.75 23.9-2.75 27.3-11.1 28.1-11.1 28.1 0ZM49.35 0.5L49.35 0.5Q45.25 0.5 42.02-1.38 38.8-3.25 36.95-6.53 35.1-9.8 35.1-14L35.1-14Q35.1-18.2 36.95-21.5 38.8-24.8 42.02-26.68 45.25-28.55 49.35-28.55L49.35-28.55Q53.5-28.55 56.72-26.68 59.95-24.8 61.82-21.5 63.7-18.2 63.7-14L63.7-14Q63.7-9.8 61.82-6.53 59.95-3.25 56.72-1.38 53.5 0.5 49.35 0.5ZM50.2-2L50.2-2Q54.5-2 56.95-4.95 59.4-7.9 59.4-12.75L59.4-12.75Q59.4-16.7 58.05-19.7 56.7-22.7 54.27-24.38 51.85-26.05 48.7-26.05L48.7-26.05Q44.4-26.05 41.9-23.15 39.4-20.25 39.4-15.4L39.4-15.4Q39.4-11.4 40.77-8.38 42.15-5.35 44.57-3.68 47-2 50.2-2ZM81.95 0L70.45 0 70.45-0.8 74-2.45 74-25.55 70.45-27.2 70.45-28 81.95-28 81.95-27.2 78.25-25.55 78.25-15.75 93.2-15.75 93.2-25.55 89.5-27.2 89.5-28 100.95-28 100.95-27.2 97.45-25.55 97.45-2.45 100.95-0.8 100.95 0 89.5 0 89.5-0.8 93.2-2.45 93.2-13.25 78.25-13.25 78.25-2.45 81.95-0.8 81.95 0ZM118.64 0L107.69 0 107.69-0.8 110.99-2.45 110.99-25.55 107.69-27.2 107.69-28 118.64-28 118.64-27.2 115.24-25.55 115.24-2.45 118.64-0.8 118.64 0ZM144.09 0L130.89 0 130.89-0.8 135.34-2.45 135.34-25.5 127.64-25.5 125.19-19.65 124.39-19.65 124.39-28 150.59-28 150.59-19.65 149.79-19.65 147.29-25.5 139.59-25.5 139.59-2.45 144.09-0.8 144.09 0ZM159.59-19.5L158.59-19.5 156.84-32 161.34-32 159.59-19.5ZM177.29 0.5L177.29 0.5Q174.64 0.5 172.71-0.05 170.79-0.6 168.79-1.55L168.79-1.55 168.34-8.3 169.14-8.3 171.49-3.8Q172.94-2.7 174.46-2.27 175.99-1.85 177.59-1.85L177.59-1.85Q180.44-1.85 181.96-3.03 183.49-4.2 183.49-6.6L183.49-6.6Q183.49-8.4 182.54-9.38 181.59-10.35 179.76-11.18 177.94-12 175.29-13.25L175.29-13.25Q172.14-14.75 170.76-16.3 169.39-17.85 169.39-20.6L169.39-20.6Q169.39-22.7 170.64-24.5 171.89-26.3 173.91-27.43 175.94-28.55 178.39-28.55L178.39-28.55Q180.44-28.55 182.19-28.03 183.94-27.5 185.64-26.7L185.64-26.7 185.99-20.2 185.19-20.2 183.29-24.3Q182.09-25.3 180.99-25.75 179.89-26.2 178.44-26.2L178.44-26.2Q175.94-26.2 174.51-24.95 173.09-23.7 173.09-21.65L173.09-21.65Q173.09-20.3 173.74-19.4 174.39-18.5 175.76-17.73 177.14-16.95 179.34-15.9L179.34-15.9Q182.19-14.55 183.89-13.43 185.59-12.3 186.36-10.9 187.14-9.5 187.14-7.35L187.14-7.35Q187.14-5.05 185.86-3.28 184.59-1.5 182.36-0.5 180.14 0.5 177.29 0.5Z" opacity="1" transform="matrix(1,0,0,1,0,0)" fill="white" class="wordmark-text-0" id="SvgjsPath1001"></path></svg></g></svg></g></svg></g></svg></g><g transform="matrix(1,0,0,1,64.38161112430669,0)"><svg viewBox="0 0 63.23677775138664 72.50427406199023" height="72.50427406199023" width="63.23677775138664"><g><svg xmlns="http://www.w3.org/2000/svg" xmlns:xlink="http://www.w3.org/1999/xlink" version="1.1" x="0" y="0" viewBox="6.391000000000002 0 87.218 100" enable-background="new 0 0 100 100" xml:space="preserve" height="72.50427406199023" width="63.23677775138664" class="icon-icon-0" data-fill-palette-color="accent" id="SvgjsSvg1000"></svg></g></svg></g><g></g></svg></g></svg></g></svg></g></svg></g><defs><mask></mask></defs></svg></g></mask><linearGradient x1="0" x2="1" y1="0.5" y2="0.5" id="01e97b55-da1b-4919-87ee-6df00673ded0"><stop stop-color="#ffa62e" offset="0"></stop><stop stop-color="#f71b3d" offset="1"></stop></linearGradient><rect width="320.00041999999996" height="360" fill="url(#01e97b55-da1b-4919-87ee-6df00673ded0)" mask="url(#d2d70139-c129-4900-838a-9dbf14485caf)" data-fill-palette-color="primary"></rect><mask id="4fc5b782-7a11-4d48-86c3-24497127be45"><g id="SvgjsG1013"><svg viewBox="0 0 320 360" height="360" width="320"><g><svg></svg></g><g><svg viewBox="0 0 320 360" height="360" width="320"><g></g><g transform="matrix(1,0,0,1,64,123.70821324632952)"><svg viewBox="0 0 192 112.58357350734096" height="112.58357350734096" width="192"><g><svg viewBox="0 0 192 112.58357350734096" height="112.58357350734096" width="192"><g><svg viewBox="0 0 192 112.58357350734096" height="112.58357350734096" width="192"><g transform="matrix(1,0,0,1,0,77.60804332789561)"><svg viewBox="0 0 192 34.97553017944535" height="34.97553017944535" width="192"><g id="SvgjsG1012"><svg viewBox="0 0 192 34.97553017944535" height="34.97553017944535" width="192" id="SvgjsSvg1011"><g><svg viewBox="0 0 192 34.97553017944535" height="34.97553017944535" width="192"><g transform="matrix(1,0,0,1,0,0)"><svg width="192" viewBox="3.25 -33 183.89 33.5" height="34.97553017944535" data-palette-color="url(#01e97b55-da1b-4919-87ee-6df00673ded0)"></svg></g></svg></g></svg></g></svg></g><g transform="matrix(1,0,0,1,64.38161112430669,0)"><svg viewBox="0 0 63.23677775138664 72.50427406199023" height="72.50427406199023" width="63.23677775138664"><g><svg xmlns="http://www.w3.org/2000/svg" xmlns:xlink="http://www.w3.org/1999/xlink" version="1.1" x="0" y="0" viewBox="6.391000000000002 0 87.218 100" enable-background="new 0 0 100 100" xml:space="preserve" height="72.50427406199023" width="63.23677775138664" class="icon-icon-0" data-fill-palette-color="accent" id="SvgjsSvg1010"><path fill="white" d="M77.806 12.728C67.152 12.728 56.381 8.48 50 0c-6.38 8.479-17.154 12.727-27.807 12.727-5.508 0-10.983-1.135-15.802-3.409 0.54 14.316 1.604 28.825 3.999 42.962 1.222 7.749 2.422 16.888 6.666 23.668 3.729 6.528 9.515 11.869 15.722 16.006 4.715 3.137 9.846 5.717 15.187 7.612 0.853 0.303 1.502 0.434 2.1 0.434 1.036 0 1.917-0.394 3.434-0.974 12.28-4.715 25.46-13.388 30.882-25.855 4.878-11.093 5.954-24.273 7.206-36.19 0.968-9.189 1.671-18.426 2.022-27.663C88.79 11.592 83.312 12.728 77.806 12.728zM81.641 35.937l-0.267 2.568c-0.396 3.824-0.797 7.694-1.326 11.496H50v39.658c-0.001 0-0.002 0.001-0.003 0.001-4.081-1.561-8.003-3.585-11.673-6.026-5.664-3.775-10.016-8.147-12.584-12.645l-0.1-0.175-0.107-0.171c-2.877-4.597-4.016-11.91-5.021-18.363l-0.244-1.557-0.009-0.056-0.01-0.056c-0.034-0.201-0.065-0.408-0.099-0.609H50V13.899l0 0c7.62 5.639 17.418 8.829 27.806 8.829 1.693 0 3.378-0.086 5.046-0.257C82.525 26.877 82.121 31.375 81.641 35.937z"></path></svg></g></svg></g><g></g></svg></g></svg></g></svg></g></svg></g><defs><mask></mask></defs><mask><g id="SvgjsG1009"><svg viewBox="0 0 320 360" height="360" width="320"><g><svg></svg></g><g><svg viewBox="0 0 320 360" height="360" width="320"><g></g><g transform="matrix(1,0,0,1,64,123.70821324632952)"><svg viewBox="0 0 192 112.58357350734096" height="112.58357350734096" width="192"><g><svg viewBox="0 0 192 112.58357350734096" height="112.58357350734096" width="192"><g><svg viewBox="0 0 192 112.58357350734096" height="112.58357350734096" width="192"><g transform="matrix(1,0,0,1,0,77.60804332789561)"><svg viewBox="0 0 192 34.97553017944535" height="34.97553017944535" width="192"><g id="SvgjsG1008"><svg viewBox="0 0 192 34.97553017944535" height="34.97553017944535" width="192" id="SvgjsSvg1007"><g><svg viewBox="0 0 192 34.97553017944535" height="34.97553017944535" width="192"><g transform="matrix(1,0,0,1,0,0)"><svg width="192" viewBox="3.25 -33 183.89 33.5" height="34.97553017944535" data-palette-color="url(#01e97b55-da1b-4919-87ee-6df00673ded0)"></svg></g></svg></g></svg></g></svg></g><g transform="matrix(1,0,0,1,64.38161112430669,0)"><svg viewBox="0 0 63.23677775138664 72.50427406199023" height="72.50427406199023" width="63.23677775138664"><g><svg xmlns="http://www.w3.org/2000/svg" xmlns:xlink="http://www.w3.org/1999/xlink" version="1.1" x="0" y="0" viewBox="6.391000000000002 0 87.218 100" enable-background="new 0 0 100 100" xml:space="preserve" height="72.50427406199023" width="63.23677775138664" class="icon-icon-0" data-fill-palette-color="accent" id="SvgjsSvg1005"></svg></g></svg></g><g></g></svg></g></svg></g></svg></g></svg></g><defs><mask></mask></defs></svg></g></mask></svg></g></mask><linearGradient x1="0" x2="1" y1="0.5" y2="0.5" id="3db16d63-67a7-481b-94df-ca6e13370fe0"><stop stop-color="#ffa62e" offset="0"></stop><stop stop-color="#f71b3d" offset="1"></stop></linearGradient><rect width="320.00041999999996" height="360" fill="url(#3db16d63-67a7-481b-94df-ca6e13370fe0)" mask="url(#4fc5b782-7a11-4d48-86c3-24497127be45)" data-fill-palette-color="accent"></rect><mask id="8cc070c9-5f61-4ba3-b87b-58f408f3557b"><g id="SvgjsG1030"><svg viewBox="0 0 320 360" height="360" width="320"><g><svg></svg></g><g><svg viewBox="0 0 320 360" height="360" width="320"><g><path transform="translate(-17.77778,2.22222) scale(3.55556,3.55556)" d="M95 52c0-12.871-5.692-24.431-14.682-32.318-7.887-8.99-19.447-14.682-32.318-14.682-23.71 0-43 19.29-43 43 0 12.868 5.69 24.426 14.677 32.313 7.887 8.993 19.449 14.687 32.323 14.687 0.084 0 0.166-0.006 0.25-0.006 0.084 0 0.166 0.006 0.25 0.006 23.472 0 42.5-19.028 42.5-42.5 0-0.084-0.006-0.166-0.006-0.25 0-0.084 0.006-0.166 0.006-0.25zM21.828 73.371c-4.245-5.978-6.77-13.259-6.822-21.121 0.135-20.511 16.732-37.109 37.244-37.244 7.862 0.052 15.144 2.577 21.121 6.822 6.853 6.645 11.129 15.93 11.129 26.172 0 20.126-16.374 36.5-36.5 36.5-10.242 0-19.527-4.276-26.172-11.129zM6 48c0-23.159 18.841-42 42-42 9.858 0 18.926 3.422 26.1 9.13-6.463-3.888-14.024-6.13-22.1-6.13-23.71 0-43 19.29-43 43 0 8.074 2.241 15.633 6.127 22.095-5.706-7.172-9.127-16.239-9.127-26.095zM52 89c-10.08 0-19.227-4.055-25.905-10.615 6.174 4.469 13.743 7.115 21.905 7.115 20.678 0 37.5-16.822 37.5-37.5 0-8.162-2.646-15.731-7.115-21.905 6.56 6.678 10.615 15.825 10.615 25.905 0 20.402-16.598 37-37 37z" fill="white" fill-rule="nonzero" stroke="none" stroke-width="1" stroke-linecap="butt" stroke-linejoin="miter" stroke-miterlimit="10" stroke-dasharray="" stroke-dashoffset="0" font-family="none" font-weight="none" font-size="none" text-anchor="none" style="mix-blend-mode: normal"></path></g><g transform="matrix(1,0,0,1,64,123.70821324632952)"><svg viewBox="0 0 192 112.58357350734096" height="112.58357350734096" width="192"><g><svg viewBox="0 0 192 112.58357350734096" height="112.58357350734096" width="192"><g><svg viewBox="0 0 192 112.58357350734096" height="112.58357350734096" width="192"><g transform="matrix(1,0,0,1,0,77.60804332789561)"><svg viewBox="0 0 192 34.97553017944535" height="34.97553017944535" width="192"><g id="SvgjsG1029"><svg viewBox="0 0 192 34.97553017944535" height="34.97553017944535" width="192" id="SvgjsSvg1028"><g><svg viewBox="0 0 192 34.97553017944535" height="34.97553017944535" width="192"><g transform="matrix(1,0,0,1,0,0)"><svg width="192" viewBox="3.25 -33 183.89 33.5" height="34.97553017944535" data-palette-color="url(#01e97b55-da1b-4919-87ee-6df00673ded0)"></svg></g></svg></g></svg></g></svg></g><g transform="matrix(1,0,0,1,64.38161112430669,0)"><svg viewBox="0 0 63.23677775138664 72.50427406199023" height="72.50427406199023" width="63.23677775138664"><g><svg xmlns="http://www.w3.org/2000/svg" xmlns:xlink="http://www.w3.org/1999/xlink" version="1.1" x="0" y="0" viewBox="6.391000000000002 0 87.218 100" enable-background="new 0 0 100 100" xml:space="preserve" height="72.50427406199023" width="63.23677775138664" class="icon-icon-0" data-fill-palette-color="accent" id="SvgjsSvg1027"></svg></g></svg></g><g></g></svg></g></svg></g></svg></g></svg></g><defs><mask></mask></defs><mask><g id="SvgjsG1026"><svg viewBox="0 0 320 360" height="360" width="320"><g><svg></svg></g><g><svg viewBox="0 0 320 360" height="360" width="320"><g></g><g transform="matrix(1,0,0,1,64,123.70821324632952)"><svg viewBox="0 0 192 112.58357350734096" height="112.58357350734096" width="192"><g><svg viewBox="0 0 192 112.58357350734096" height="112.58357350734096" width="192"><g><svg viewBox="0 0 192 112.58357350734096" height="112.58357350734096" width="192"><g transform="matrix(1,0,0,1,0,77.60804332789561)"><svg viewBox="0 0 192 34.97553017944535" height="34.97553017944535" width="192"><g id="SvgjsG1025"><svg viewBox="0 0 192 34.97553017944535" height="34.97553017944535" width="192" id="SvgjsSvg1024"><g><svg viewBox="0 0 192 34.97553017944535" height="34.97553017944535" width="192"><g transform="matrix(1,0,0,1,0,0)"><svg width="192" viewBox="3.25 -33 183.89 33.5" height="34.97553017944535" data-palette-color="url(#01e97b55-da1b-4919-87ee-6df00673ded0)"></svg></g></svg></g></svg></g></svg></g><g transform="matrix(1,0,0,1,64.38161112430669,0)"><svg viewBox="0 0 63.23677775138664 72.50427406199023" height="72.50427406199023" width="63.23677775138664"><g><svg xmlns="http://www.w3.org/2000/svg" xmlns:xlink="http://www.w3.org/1999/xlink" version="1.1" x="0" y="0" viewBox="6.391000000000002 0 87.218 100" enable-background="new 0 0 100 100" xml:space="preserve" height="72.50427406199023" width="63.23677775138664" class="icon-icon-0" data-fill-palette-color="accent" id="SvgjsSvg1022"></svg></g></svg></g><g></g></svg></g></svg></g></svg></g></svg></g><defs><mask></mask></defs></svg></g></mask><mask><g id="SvgjsG1021"><svg viewBox="0 0 320 360" height="360" width="320"><g><svg></svg></g><g><svg viewBox="0 0 320 360" height="360" width="320"><g></g><g transform="matrix(1,0,0,1,64,123.70821324632952)"><svg viewBox="0 0 192 112.58357350734096" height="112.58357350734096" width="192"><g><svg viewBox="0 0 192 112.58357350734096" height="112.58357350734096" width="192"><g><svg viewBox="0 0 192 112.58357350734096" height="112.58357350734096" width="192"><g transform="matrix(1,0,0,1,0,77.60804332789561)"><svg viewBox="0 0 192 34.97553017944535" height="34.97553017944535" width="192"><g id="SvgjsG1020"><svg viewBox="0 0 192 34.97553017944535" height="34.97553017944535" width="192" id="SvgjsSvg1019"><g><svg viewBox="0 0 192 34.97553017944535" height="34.97553017944535" width="192"><g transform="matrix(1,0,0,1,0,0)"><svg width="192" viewBox="3.25 -33 183.89 33.5" height="34.97553017944535" data-palette-color="url(#01e97b55-da1b-4919-87ee-6df00673ded0)"></svg></g></svg></g></svg></g></svg></g><g transform="matrix(1,0,0,1,64.38161112430669,0)"><svg viewBox="0 0 63.23677775138664 72.50427406199023" height="72.50427406199023" width="63.23677775138664"><g><svg xmlns="http://www.w3.org/2000/svg" xmlns:xlink="http://www.w3.org/1999/xlink" version="1.1" x="0" y="0" viewBox="6.391000000000002 0 87.218 100" enable-background="new 0 0 100 100" xml:space="preserve" height="72.50427406199023" width="63.23677775138664" class="icon-icon-0" data-fill-palette-color="accent" id="SvgjsSvg1018"></svg></g></svg></g><g></g></svg></g></svg></g></svg></g></svg></g><defs><mask></mask></defs><mask><g id="SvgjsG1017"><svg viewBox="0 0 320 360" height="360" width="320"><g><svg></svg></g><g><svg viewBox="0 0 320 360" height="360" width="320"><g></g><g transform="matrix(1,0,0,1,64,123.70821324632952)"><svg viewBox="0 0 192 112.58357350734096" height="112.58357350734096" width="192"><g><svg viewBox="0 0 192 112.58357350734096" height="112.58357350734096" width="192"><g><svg viewBox="0 0 192 112.58357350734096" height="112.58357350734096" width="192"><g transform="matrix(1,0,0,1,0,77.60804332789561)"><svg viewBox="0 0 192 34.97553017944535" height="34.97553017944535" width="192"><g id="SvgjsG1016"><svg viewBox="0 0 192 34.97553017944535" height="34.97553017944535" width="192" id="SvgjsSvg1015"><g><svg viewBox="0 0 192 34.97553017944535" height="34.97553017944535" width="192"><g transform="matrix(1,0,0,1,0,0)"><svg width="192" viewBox="3.25 -33 183.89 33.5" height="34.97553017944535" data-palette-color="url(#01e97b55-da1b-4919-87ee-6df00673ded0)"></svg></g></svg></g></svg></g></svg></g><g transform="matrix(1,0,0,1,64.38161112430669,0)"><svg viewBox="0 0 63.23677775138664 72.50427406199023" height="72.50427406199023" width="63.23677775138664"><g><svg xmlns="http://www.w3.org/2000/svg" xmlns:xlink="http://www.w3.org/1999/xlink" version="1.1" x="0" y="0" viewBox="6.391000000000002 0 87.218 100" enable-background="new 0 0 100 100" xml:space="preserve" height="72.50427406199023" width="63.23677775138664" class="icon-icon-0" data-fill-palette-color="accent" id="SvgjsSvg1014"></svg></g></svg></g><g></g></svg></g></svg></g></svg></g></svg></g><defs><mask></mask></defs></svg></g></mask></svg></g></mask></svg></g></mask><linearGradient x1="0" x2="1" y1="0.5" y2="0.5" id="5e0a851c-4a82-470d-80ae-ec1f4eb108e0"><stop stop-color="#ffa62e" offset="0"></stop><stop stop-color="#f71b3d" offset="1"></stop></linearGradient></svg><rect width="320" height="360" fill="none" stroke="none" visibility="hidden"></rect></g></svg></g></svg>